# xmcd
#
# Track frame offsets: 
#        182
#        27675
#        51600
#        119512
#        135450
#        164700
#        187275
#        199172
#        236215
#        257665
#
# Disc length: 3844 seconds
#
# Revision: 2
# Processed by: cddbd v1.5.2PL0 Copyright (c) Steve Scherf et al.
# Submitted via: ExactAudioCopy v1.0b3
#
DISCID=a50f020a
DTITLE=Jazz Studio - Live At Arenberg 1995
DYEAR=1995
DGENRE=Jazz
TTITLE0=Swerts,Verrydt,Venezano,Stalon,Polet - Bluesette
TTITLE1=Swerts,Verrydt,Venezano,Stalon,Polet - Cantaloupe Island
TTITLE2=Blesin,Jeanmart,Waterkeyn,Vandemaele - Myose
TTITLE3=Miglore,Kowalski,Adriaensen,Tarlizos - Sno'peas
TTITLE4=Miglore,Kowalski,Adriaensen,Tarlizos - Sister Moon
TTITLE5=Pireyns,Bovee,Theuns,Peeters,Meeus,DeSmet - Miagowee
TTITLE6=Pireyns,Bovee,Theuns,Peeters,Meeus,DeSmet - Losing You
TTITLE7=Pireyns,Bovee,Theuns,Peeters,Meeus,DeSmet - Scramble
TTITLE8=Rottiers,Duyk,Huylenbroeck,Faes,Blesin,Quackelbeen,Sondervan /
TTITLE8=Vivo Sonhando
TTITLE9=Rottiers,Duyk,Huylenbroeck,Faes,Blesin,Quackelbeen,Sondervan /
TTITLE9=A Felicidade
EXTD=
EXTT0=
EXTT1=
EXTT2=
EXTT3=
EXTT4=
EXTT5=
EXTT6=
EXTT7=
EXTT8=
EXTT9=
PLAYORDER=
